PathFileType	4	(X/Y/Z)	E:\Qualisys_Data\Carbon_Farble_Plate\Data\Amateur_Runner\S2\T3\S2T3V22_c3d.trc
DataRate	CameraRate	NumFrames	NumMarkers	Units	OrigDataRate	OrigDataStartFrame	OrigNumFrames
200.000000	200.000000	4	39	mm	200.000000	158	316
Frame#	Time	LSHO			RSHO			LICST			RICST			LASIS			LHEEL			RASIS			LTROC			RTROC			SACR			LTH1			LSK4			LTH2			LTH3			RHM5			LSK2			LTH4			RTH1			LTOE			RTH2			RTH3			RTH4			LLEP			RLEP			LSK1			LSK3			RSK1			LHM5			RSK2			LFT1			RSK3			RSK4			LLME			RLME			RTOE			RHEEL			RFT1			RFT2			LFT2			
		X1	Y1	Z1	X2	Y2	Z2	X3	Y3	Z3	X4	Y4	Z4	X5	Y5	Z5	X6	Y6	Z6	X7	Y7	Z7	X8	Y8	Z8	X9	Y9	Z9	X10	Y10	Z10	X11	Y11	Z11	X12	Y12	Z12	X13	Y13	Z13	X14	Y14	Z14	X15	Y15	Z15	X16	Y16	Z16	X17	Y17	Z17	X18	Y18	Z18	X19	Y19	Z19	X20	Y20	Z20	X21	Y21	Z21	X22	Y22	Z22	X23	Y23	Z23	X24	Y24	Z24	X25	Y25	Z25	X26	Y26	Z26	X27	Y27	Z27	X28	Y28	Z28	X29	Y29	Z29	X30	Y30	Z30	X31	Y31	Z31	X32	Y32	Z32	X33	Y33	Z33	X34	Y34	Z34	X35	Y35	Z35	X36	Y36	Z36	X37	Y37	Z37	X38	Y38	Z38	X39	Y39	Z39	

159	0.79	-194.6914215087891	1498.229614257812	-469.0951538085938	-254.4041290283203	1478.515625	-174.5062408447266	-263.7172241210938	1028.573852539062	-474.03662109375	-246.3185424804688	1022.997741699219	-176.9150085449219	-212.2076110839844	974.6920166015624	-463.7523193359375	-797.6848754882812	491.1529541015625	-343.14306640625	-187.6515808105469	977.6550903320312	-208.2319183349609	-361.2245178222656	926.6387329101562	-468.439453125	-317.3753356933594	919.7813110351562	-160.5469665527344	-351.0996398925781	1068.487670898438	-326.6161499023438	-325.8439331054688	668.2943725585938	-485.2491455078125	-659.7562866210938	527.4664916992188	-439.8708190917969	-404.0847473144531	696.556884765625	-481.1288452148438	-360.3168640136719	572.0568237304688	-470.1630249023438	121.1349639892578	170.4047393798828	-188.1736907958984	-566.2105102539062	554.09716796875	-465.061767578125	-438.7095642089844	603.8800048828125	-456.1495666503906	-103.3841018676758	685.6044921875	-159.2433166503906	-881.9939575195312	259.4425048828125	-394.7625732421875	-178.2716064453125	658.5111694335938	-148.5378875732422	-74.8363265991211	592.3304443359375	-190.1940155029297	-151.6957550048828	568.1421508789062	-176.2345123291016	-429.0299682617188	551.0006103515625	-466.4957885742188	-107.7684860229492	549.0244750976562	-177.2185668945312	-545.4017333984375	477.8092346191406	-467.1237487792969	-641.1259765625	452.037109375	-451.9678955078125	-38.94667053222656	443.7744140625	-180.1148986816406	-895.8563842773438	334.7622680664062	-431.4219360351562	-114.0801773071289	425.8940734863281	-159.8191375732422	-816.4676513671875	480.5443725585938	-310.1056518554688	-17.10298538208008	344.0514221191406	-188.9146728515625	-93.52136993408205	329.4822082519531	-170.3231811523438	-812.6405639648438	442.7126159667969	-408.1202087402344	-9.53313159942627	150.9790954589844	-205.0200347900391	164.5240325927734	218.0623168945312	-247.0312194824219	-61.22772979736328	101.0968322753906	-255.7178649902344	-37.48120498657227	86.7524185180664	-288.9867858886719	-46.51958465576172	78.1307144165039	-238.3335113525391	-831.5128784179688	500.2849731445312	-358.0120544433594
160	0.795	-174.5531921386719	1495.114135742188	-469.0875854492188	-233.8827056884766	1474.73779296875	-173.9535675048828	-243.3083038330078	1025.442993164062	-474.7858581542969	-226.2783050537109	1020.418212890625	-177.0029296875	-191.9292449951172	971.84375	-463.6951293945312	-773.3792114257812	496.5282897949219	-343.9795532226562	-167.8279724121094	974.9491577148438	-208.6147613525391	-340.4544067382812	923.1443481445312	-469.3345031738281	-297.0313110351562	917.0218505859376	-160.8215942382812	-331.1983337402344	1065.209716796875	-327.2951354980469	-302.6336364746094	664.5154418945312	-486.1396484375	-634.5454711914062	527.617919921875	-441.8182983398438	-380.8462524414062	691.7280883789062	-482.0560607910156	-335.7431030273438	567.7745361328125	-471.6862487792969	138.3738403320312	165.8815002441406	-189.7535858154297	-540.6519165039062	552.9534301757812	-465.84912109375	-414.5178527832031	598.5467529296875	-457.3265991210938	-84.72702026367188	681.7664184570312	-159.3997802734375	-863.758056640625	267.7930603027344	-396.3891906738281	-158.5178985595703	653.7120361328125	-146.8874206542969	-56.09699630737305	588.7390747070312	-192.1572723388672	-132.3985748291016	564.4913940429688	-176.5996246337891	-404.3687438964844	545.8028564453125	-468.3043823242188	-88.12106323242188	545.4493408203125	-178.067626953125	-521.8683471679688	475.3807983398438	-468.4267578125	-618.450439453125	452.3302001953125	-453.0926513671875	-20.17977523803711	439.569580078125	-182.0063934326172	-875.5654907226562	343.1177368164062	-432.6159973144531	-95.7996063232422	422.2969970703125	-160.9554138183594	-792.2548828125	486.1856994628906	-310.8702697753906	0.8102887272834778	340.2519836425781	-190.52783203125	-75.578369140625	325.726318359375	-171.7371978759766	-789.578125	448.6663818359375	-408.6958312988281	7.862990856170654	146.5667572021484	-207.3190155029297	181.7200927734375	214.1498260498047	-248.2634735107422	-44.03352737426758	97.0520477294922	-258.5819702148438	-20.23640632629395	83.40190124511719	-292.0004272460938	-29.69637870788574	74.27869415283203	-241.4985809326172	-806.4765625	506.5853576660156	-359.0213317871094
161	0.8	-154.2025146484375	1491.311889648438	-469.131103515625	-213.5431823730469	1470.333251953125	-173.3890380859375	-223.2370910644531	1022.152221679688	-475.0880126953125	-206.69775390625	1017.347961425781	-177.3189544677734	-171.8166198730469	968.7518920898438	-463.6599426269531	-747.9082641601562	501.9970703125	-343.308837890625	-148.0050506591797	972.04541015625	-208.9307250976562	-319.61669921875	919.5651245117188	-470.3531188964844	-276.7226257324219	913.7606201171876	-160.3360900878906	-310.6413879394531	1062.138549804688	-327.519287109375	-278.6569213867188	660.4276733398438	-486.9782104492188	-609.3770141601562	528.039306640625	-443.0147399902344	-357.489990234375	686.7898559570312	-483.0812072753906	-310.9970397949219	563.2484741210938	-473.2738952636719	154.5995635986328	160.3136596679688	-191.2408905029297	-514.5767822265625	550.7979125976562	-467.5620727539062	-389.7801513671875	593.2010498046875	-458.9323120117188	-65.38782501220703	677.9688110351562	-160.6150970458984	-844.7988891601562	275.1122741699219	-397.0050659179688	-138.7938690185547	649.3816528320312	-146.9519500732422	-36.67901229858398	585.5755615234375	-193.9921569824219	-112.4202194213867	559.9065551757812	-178.4250030517578	-379.0228576660156	540.896240234375	-470.2848815917969	-67.77442932128906	542.0377807617188	-179.5547943115234	-498.1535034179688	473.0610961914062	-469.9239807128906	-595.0369262695312	452.3412475585938	-453.9726867675781	-1.888259291648865	435.4233093261719	-182.8717193603516	-854.5824584960938	351.1730041503906	-433.9076232910156	-77.28230285644531	418.5995178222656	-162.2045745849609	-767.7069702148438	492.2401733398438	-311.5545043945312	18.37813758850098	335.6507873535156	-192.1148071289062	-58.04103469848633	321.9848022460938	-173.2391662597656	-766.1063232421875	454.0215759277344	-409.5433654785156	23.5742073059082	142.3072662353516	-209.7595367431641	198.0320434570312	209.052490234375	-248.9009246826172	-28.13986206054688	92.64246368408205	-260.9480895996094	-4.272966861724854	79.9763412475586	-295.105224609375	-13.93978118896484	69.61595916748047	-244.6971435546875	-781.5450439453125	512.6878662109375	-360.0983581542969
162	0.805	-134.1557312011719	1487.62841796875	-468.9615478515625	-193.2115936279297	1465.853149414062	-172.6184234619141	-203.1406860351562	1018.610534667969	-475.3224792480469	-187.0612945556641	1014.190124511719	-177.4343566894531	-151.4790344238281	965.3034057617188	-464.1935424804688	-723.2020874023438	506.9105224609375	-346.4725646972656	-128.1158447265625	969.0197143554688	-209.0752868652344	-299.0422058105469	915.6802978515624	-471.6937561035156	-256.5938720703125	910.248291015625	-159.9392395019531	-291.3964233398438	1058.605590820312	-328.1209716796875	-254.4847259521484	656.0366821289062	-488.1348571777344	-584.0358276367188	528.0792236328125	-444.6706237792969	-333.8333129882812	681.4052734375	-484.0393981933594	-285.9765625	558.2479858398438	-475.0934448242188	169.1729431152344	153.9845123291016	-192.8303833007812	-488.7822570800781	548.1394653320312	-469.0910949707031	-365.3623657226562	587.3892211914062	-460.5947265625	-45.39114379882812	675.002685546875	-162.2911071777344	-824.3535766601562	282.299072265625	-398.0847473144531	-118.6304779052734	645.7857666015625	-148.3446655273438	-16.31285667419434	582.3841552734375	-195.9509124755859	-91.83448028564452	556.4402465820312	-179.8633880615234	-353.7720336914062	535.118896484375	-471.9385986328125	-47.82644271850586	538.5624389648438	-181.4677429199219	-474.1283264160156	469.7686157226562	-471.3673095703125	-571.68798828125	452.953857421875	-455.745849609375	16.08205986022949	430.8041076660156	-184.4197082519531	-832.3595581054688	358.3025512695312	-434.4970703125	-59.42612457275391	414.6648559570312	-163.9676208496094	-743.02978515625	497.7747497558594	-312.7367858886719	35.32812881469727	330.6914672851562	-193.8602142333984	-41.54470443725586	317.9892578125	-175.5110168457031	-741.7022705078125	459.6829528808594	-410.4494323730469	38.32704925537109	137.5080261230469	-211.5700073242188	213.1140899658203	203.1630249023438	-249.93505859375	-14.12391090393066	89.27345275878906	-263.6938781738281	9.88323211669922	76.03404998779297	-297.5903015136719	0.2812193930149078	65.48467254638672	-247.4109954833984	-756.0226440429688	518.4835815429688	-360.932373046875
